<?xml version="1.0" encoding="UTF-8"?>
<svg id="Layer_1" data-name="Layer 1" xmlns="http://www.w3.org/2000/svg" viewBox="0 0 1487.37 577.27">
  <defs>
    <style>
      .cls-1 {
        fill: #000;
        stroke-width: 0px;
      }
    </style>
  </defs>
  <g>
    <path class="cls-1" d="M249.8,183.2c-.53-.64-1.08-1.26-1.66-1.86-9.46-9.85-22.85-12.52-35.84-14.59-5.55-.89-11.16-1.5-16.77-1.81-2.47-.14-4.95-.21-7.42-.21-32.42,0-87.84,21.1-108.09,86.48-6.49,20.96-10.67,47.48,2.86,66.7,4.71,6.69,11.34,11.72,18.85,14.89,4.04,1.71,8.3,2.9,12.62,3.67,6.6,1.19,12.62.85,19.32.38,2.71-.19,5.46-.37,8.11.2,1.83.4,3.81,1.41,4.22,3.24.46,2.08-1.31,3.92-2.92,5.31-16.07,13.9-31.74,28.25-47.7,42.26-16.01,14.06-32.78,27.24-48.12,42.06-26.35,25.45-51.6,61.52-46.61,100.3,1.32,10.23,5.2,19.99,11.54,28.15,2.28,2.93,4.89,5.6,7.82,7.89,7.59,5.96,17.03,9.32,26.61,10.47,18.51,2.22,38.28-2.65,54.19-12.2,10.22-6.13,19.37-13.93,27.59-22.52,14.37-15,27.48-44.91,34.82-62.94,23.31-57.21,17.52-110.07,23.67-136.88.36-1.61.78-3.12,1.23-4.53,1.9-5.8,5.5-14.62,10.11-25.16,7.15-16.36,14.72-32.52,22.38-48.64,7.65-16.1,15.42-32.14,23.27-48.15,2.28-4.65,4.47-9.34,6.62-14.05,1.88-4.11,4.03-8.18,2.56-12.79-.67-2.1-1.85-3.98-3.25-5.69ZM146.82,380.95c-.09.58-.24,1.16-.4,1.69-12.14,39.48-30.11,77.47-54.29,111.02-7.84,10.88-16.43,21.35-26.75,29.92-7.17,5.95-19.11,13.78-28.6,8.68-23.8-12.8,0-59.46,27.02-86.48,12.62-12.62,25.97-24.49,39.54-36.09,6.7-5.73,13.45-11.39,20.21-17.06,3.57-3,16.79-19.09,22.2-15.45,1.17.79,1.31,2.29,1.08,3.77ZM148.55,307.87c-1.08,1.59-2.45,2.88-4.42,3.14-3.08.41-5.7-2.25-7.27-4.94-9.07-15.62-6.52-38.09-2.8-54.86,3.36-15.16,12.01-29.75,21.25-42.03,10.38-13.81,25.61-27.97,44.47-22.45,6.17,1.8,10.27,7.2,8.81,13.73-.89,3.96-3.31,7.38-5.62,10.72-11.43,16.51-21.53,33.9-31.03,51.58-4.8,8.94-9.46,17.96-14.07,27-2.31,4.54-4.62,9.07-6.92,13.62-.7,1.39-1.44,3.08-2.41,4.51Z"/>
    <path class="cls-1" d="M392.1,257.02c-2.13-.8-4.32-1.45-6.51-2.03-10.5-2.75-21.38-3.75-32.21-3.82-11.11-.07-22.72.35-33.18,4.47-12.7,5.01-18.21,14.93-22.75,27.19-2.73,7.37-6.31,15.03-14.38,17.6-3.98,1.27-9.07.71-11.3-2.82-1.32-2.09-1.35-4.72-1.21-7.18.79-14.54,6.18-27.66,13.47-40.09,17.57-29.9,35.55-59.36,51-90.48.47-.95.95-1.91,1.41-2.87,1.18-2.41,2.53-4.82,3.52-7.31,22.76-48.21,61.6-119.18,25.44-145.96-14-10.37-27.87,3.2-36.65,13.6-10.1,11.96-17.75,27.25-24.65,41.26-10.37,21.04-18.06,43.16-24.04,65.79-7.89,29.92-13.62,60.38-19.11,90.84-1.73,9.82-3.34,19.68-4.36,29.61-1.03,10.06-4.82,19.63-11.07,27.57-10.5,13.35-36.44,45.74-53.52,52.05-4.61,10.54-6,22.19-7.9,27.99-.46,1.41-.87,2.92-1.23,4.53,3.48-1.19,20.58-21.2,36.58-37.2,18.75-18.75,25.44-30.8,28.12-29.46s-2.68,37.49,6.7,49.55c5.37,6.91,14.08,10.77,22.81,9.82,16.72-1.82,29.1-18.65,36.31-32.4,3.61-6.88,6.53-14.1,9.35-21.33,2.58-6.62,4.82-12.38,11.05-16.44,7.02-4.59,15.61-4.6,23.67-5.23,6.76-.53,13.84-1.64,20.44.53,6.13,2.02,10.07,7.28,15.63,10.25,3.09,1.65,6.52,2.21,9.49-.09,2.32-1.8,3.63-4.64,4.35-7.49.68-2.69.91-5.58.01-8.2-.86-2.53-2.7-4.62-4.75-6.33-3.11-2.6-6.73-4.47-10.54-5.89ZM303.81,125.57c16.07-30.8,25.44-40.17,36.16-36.16,10.11,3.79-2.68,17.41-21.43,53.56s-30.8,65.62-34.82,64.28,4.02-50.89,20.09-81.68Z"/>
    <path class="cls-1" d="M198.22,312.52c-.52.19-1.03.36-1.54.52"/>
    <path class="cls-1" d="M351.35,320.5c-.52.05-1.04.11-1.55.2-7.39,1.23-11.82,8.12-12.14,15.28-.14,3.19.69,6.49,2.65,9.01,2.72,3.5,7.29,5.16,11.72,5.29,9.08.28,19.97-3.53,23.01-12.99,1.61-5,.14-11.06-4.1-14.17-2.61-1.91-5.94-2.58-9.18-2.72-3.39-.15-7.05-.21-10.42.1Z"/>
  </g>
  <g>
    <path class="cls-1" d="M534.38,127.33c0-52.43,29.69-84.21,76.32-84.21,35.26,0,68.67,17.86,72.61,59.15h-43.61c-4.18-19.49-20.41-21.34-29-21.34-26.68,0-31.55,22.97-31.55,45s5.57,46.16,32.25,46.16c10.67,0,29.23-3.25,29.46-22.27h-25.52v-35.26h69.59v20.18c0,49.64-27.84,75.16-73.31,75.16-51.5,0-77.25-32.94-77.25-82.58Z"/>
    <path class="cls-1" d="M745.95,45.21h57.07l56.83,162.39h-46.16l-7.89-24.36h-62.63l-7.89,24.36h-46.16l56.83-162.39ZM795.6,150.99l-19.95-61.71h-2.32l-19.95,61.71h42.22Z"/>
    <path class="cls-1" d="M871.23,169.55l77.48-86.3h-76.79v-38.04h125.5v38.04l-77.95,86.3h78.87v38.04h-127.12v-38.04Z"/>
    <path class="cls-1" d="M1019,45.21h66.81c50.11,0,76.79,29,76.79,81.19s-26.68,81.19-76.79,81.19h-66.81V45.21ZM1117.59,126.4c0-31.32-7.89-43.15-36.42-43.15h-18.33v86.3h18.33c28.53,0,36.42-12.06,36.42-43.15Z"/>
    <path class="cls-1" d="M1221.06,45.21h57.07l56.83,162.39h-46.16l-7.89-24.36h-62.63l-7.89,24.36h-46.16l56.83-162.39ZM1270.7,150.99l-19.95-61.71h-2.32l-19.95,61.71h42.22Z"/>
    <path class="cls-1" d="M1336.82,127.33c0-52.43,29.69-84.21,76.32-84.21,35.26,0,68.67,17.86,72.61,59.15h-43.61c-4.18-19.49-20.41-21.34-29-21.34-26.68,0-31.55,22.97-31.55,45s5.57,46.16,32.25,46.16c10.67,0,29.23-3.25,29.46-22.27h-25.52v-35.26h69.59v20.18c0,49.64-27.84,75.16-73.31,75.16-51.5,0-77.25-32.94-77.25-82.58Z"/>
    <path class="cls-1" d="M537.86,271.8h68.9c37.58,0,55.21,16.01,55.21,41.29,0,18.33-8.35,26.91-22.73,31.78,25.29,6.96,34.33,22.27,34.33,41.06,0,25.75-18.09,48.25-62.87,48.25h-72.84v-162.39ZM617.9,321.91c0-11.14-8.12-13.45-12.53-13.45h-23.66v27.84h23.66c4.41,0,12.53-2.78,12.53-14.38ZM628.1,380.83c0-8.58-3.25-17.86-19.02-17.86h-27.37v34.33h27.37c15.77,0,19.02-8.82,19.02-16.47Z"/>
    <path class="cls-1" d="M734.59,271.8h57.07l56.83,162.39h-46.16l-7.89-24.36h-62.63l-7.89,24.36h-46.16l56.83-162.39ZM784.23,377.58l-19.95-61.71h-2.32l-19.95,61.71h42.22Z"/>
    <path class="cls-1" d="M863.11,271.8h43.84v124.34h69.83v38.04h-113.67v-162.39Z"/>
    <path class="cls-1" d="M1042.43,271.8h57.07l56.83,162.39h-46.16l-7.89-24.36h-62.63l-7.89,24.36h-46.16l56.83-162.39ZM1092.07,377.58l-19.95-61.71h-2.32l-19.95,61.71h42.22Z"/>
    <path class="cls-1" d="M1167.7,396.14l77.48-86.3h-76.79v-38.04h125.5v38.04l-77.95,86.3h78.87v38.04h-127.12v-38.04Z"/>
    <path class="cls-1" d="M1312,377.58h45.7c.7,12.29,6.96,22.73,25.52,22.73,13.45,0,22.73-5.1,22.73-15.31,0-7.19-4.64-10.9-17.17-13.45l-23.43-4.64c-24.13-4.64-48.95-15.08-48.95-47.32,0-34.1,28.3-49.88,66.35-49.88s65.88,16.7,65.88,53.82h-45.7c.93-13.92-10.44-17.63-21.34-17.63-14.61,0-19.02,7.42-19.02,13.69,0,4.18,2.32,9.98,12.99,12.29l20.88,4.18c43.38,8.58,56.14,25.05,56.14,48.72,0,37.81-32.71,51.73-69.59,51.73-42.68,0-70.99-19.25-70.99-58.92Z"/>
  </g>
</svg>